<svg xmlns="http://www.w3.org/2000/svg" version="1.1" xmlns:xlink="http://www.w3.org/1999/xlink" xmlns:svgjs="http://svgjs.dev/svgjs" width="2000" height="348" viewBox="0 0 2000 348"><g transform="matrix(1,0,0,1,-1.2121212121212466,-1.1210147469069796)"><svg viewBox="0 0 396 69" data-background-color="#ffffff" preserveAspectRatio="xMidYMid meet" height="348" width="2000" xmlns="http://www.w3.org/2000/svg" xmlns:xlink="http://www.w3.org/1999/xlink"><g id="tight-bounds" transform="matrix(1,0,0,1,0.2400000000000091,0.22227016533500432)"><svg viewBox="0 0 395.52 68.55545915447118" height="68.55545915447118" width="395.52"><g><svg viewBox="0 0 448.3364501332141 77.71013145875851" height="68.55545915447118" width="395.52"><g transform="matrix(1,0,0,1,52.8164501332141,0)"><svg viewBox="0 0 395.52 77.71013145875851" height="77.71013145875851" width="395.52"><g id="textblocktransform"><svg viewBox="0 0 395.52 77.71013145875851" height="77.71013145875851" width="395.52" id="textblock"><g><svg viewBox="0 0 395.52 51.86827099959916" height="51.86827099959916" width="395.52"><g transform="matrix(1,0,0,1,0,0)"><svg width="395.52" viewBox="2.1500000953674316 -37 283.40388427734376 37.45000076293945" height="51.86827099959916" data-palette-color="#001f3f"><g transform="matrix(1,0,0,1,0,0)"><g><svg width="16.815927734375002" viewBox="1.7799999713897705 -36.36000061035156 74.20999908447266 36.36000061035156" height="8.239" data-palette-color="#001f3f" id="scriptelement" x="268.7379481283325" y="-8.239"><path d="M12.91-30.02L1.78-30.02 1.78-36.36 31.64-36.36 31.64-30.02 20.51-30.02 20.51 0 12.91 0 12.91-30.02ZM36.57 0L36.57-36.36 46.06-36.36 56.07-11.93 56.5-11.93 66.51-36.36 75.99-36.36 75.99 0 68.53 0 68.53-23.67 68.23-23.67 58.82-0.18 53.74-0.18 44.33-23.76 44.03-23.76 44.03 0 36.57 0Z" opacity="1" transform="matrix(1,0,0,1,0,0)" fill="#ffffff" class="undefined-123" data-fill-palette-color="primary" id="p-123"></path></svg></g></g><g class="wordmark-text-0" data-fill-palette-color="primary" id="text-0"><path d="M2.15-13.75Q2.15-18 3.85-21.18 5.55-24.35 8.58-26.1 11.6-27.85 15.5-27.85L15.5-27.85Q20.55-27.85 23.83-25.4 27.1-22.95 28.15-18.6L28.15-18.6 23.25-18.6Q22.55-21.1 20.53-22.55 18.5-24 15.5-24L15.5-24Q11.6-24 9.2-21.33 6.8-18.65 6.8-13.75L6.8-13.75Q6.8-8.8 9.2-6.1 11.6-3.4 15.5-3.4L15.5-3.4Q18.5-3.4 20.5-4.8 22.5-6.2 23.25-8.8L23.25-8.8 28.15-8.8Q27.05-4.6 23.75-2.08 20.45 0.45 15.5 0.45L15.5 0.45Q11.6 0.45 8.58-1.3 5.55-3.05 3.85-6.25 2.15-9.45 2.15-13.75L2.15-13.75ZM46.15 0.45Q42.3 0.45 39.17-1.3 36.05-3.05 34.27-6.28 32.5-9.5 32.5-13.75L32.5-13.75Q32.5-17.95 34.32-21.18 36.15-24.4 39.3-26.13 42.45-27.85 46.35-27.85L46.35-27.85Q50.25-27.85 53.4-26.13 56.55-24.4 58.37-21.2 60.2-18 60.2-13.75L60.2-13.75Q60.2-9.5 58.32-6.28 56.45-3.05 53.25-1.3 50.05 0.45 46.15 0.45L46.15 0.45ZM46.15-3.55Q48.6-3.55 50.75-4.7 52.9-5.85 54.22-8.15 55.55-10.45 55.55-13.75L55.55-13.75Q55.55-17.05 54.25-19.35 52.95-21.65 50.85-22.78 48.75-23.9 46.3-23.9L46.3-23.9Q43.8-23.9 41.72-22.78 39.65-21.65 38.4-19.35 37.15-17.05 37.15-13.75L37.15-13.75Q37.15-10.4 38.37-8.1 39.6-5.8 41.65-4.67 43.7-3.55 46.15-3.55L46.15-3.55ZM64.5-13.8Q64.5-18 66.19-21.18 67.89-24.35 70.87-26.1 73.84-27.85 77.55-27.85L77.55-27.85Q80.75-27.85 83.5-26.38 86.25-24.9 87.69-22.5L87.69-22.5 87.69-37 92.3-37 92.3 0 87.69 0 87.69-5.15Q86.34-2.7 83.69-1.13 81.05 0.45 77.5 0.45L77.5 0.45Q73.84 0.45 70.87-1.35 67.89-3.15 66.19-6.4 64.5-9.65 64.5-13.8L64.5-13.8ZM87.69-13.75Q87.69-16.85 86.44-19.15 85.19-21.45 83.07-22.68 80.94-23.9 78.39-23.9L78.39-23.9Q75.84-23.9 73.75-22.7 71.64-21.5 70.39-19.2 69.14-16.9 69.14-13.8L69.14-13.8Q69.14-10.65 70.39-8.33 71.64-6 73.75-4.78 75.84-3.55 78.39-3.55L78.39-3.55Q80.94-3.55 83.07-4.78 85.19-6 86.44-8.33 87.69-10.65 87.69-13.75L87.69-13.75ZM124.99-14.75Q124.99-13.45 124.84-12L124.84-12 102.94-12Q103.19-7.95 105.72-5.68 108.24-3.4 111.84-3.4L111.84-3.4Q114.79-3.4 116.77-4.78 118.74-6.15 119.54-8.45L119.54-8.45 124.44-8.45Q123.34-4.5 120.04-2.02 116.74 0.45 111.84 0.45L111.84 0.45Q107.94 0.45 104.87-1.3 101.79-3.05 100.04-6.28 98.29-9.5 98.29-13.75L98.29-13.75Q98.29-18 99.99-21.2 101.69-24.4 104.77-26.13 107.84-27.85 111.84-27.85L111.84-27.85Q115.74-27.85 118.74-26.15 121.74-24.45 123.37-21.48 124.99-18.5 124.99-14.75L124.99-14.75ZM120.29-15.7Q120.29-18.3 119.14-20.18 117.99-22.05 116.02-23.03 114.04-24 111.64-24L111.64-24Q108.19-24 105.77-21.8 103.34-19.6 102.99-15.7L102.99-15.7 120.29-15.7Z" fill="#ffffff" data-fill-palette-color="primary"></path><path d="M155.54-27.9Q160.54-27.9 163.64-24.88 166.74-21.85 166.74-16.15L166.74-16.15 166.74 0 162.24 0 162.24-15.5Q162.24-19.6 160.19-21.78 158.14-23.95 154.59-23.95L154.59-23.95Q150.99-23.95 148.86-21.7 146.74-19.45 146.74-15.15L146.74-15.15 146.74 0 142.19 0 142.19-27.4 146.74-27.4 146.74-23.5Q148.09-25.6 150.41-26.75 152.74-27.9 155.54-27.9L155.54-27.9ZM186.14 0.45Q182.29 0.45 179.16-1.3 176.04-3.05 174.26-6.28 172.49-9.5 172.49-13.75L172.49-13.75Q172.49-17.95 174.31-21.18 176.14-24.4 179.29-26.13 182.44-27.85 186.34-27.85L186.34-27.85Q190.24-27.85 193.39-26.13 196.54-24.4 198.36-21.2 200.19-18 200.19-13.75L200.19-13.75Q200.19-9.5 198.31-6.28 196.44-3.05 193.24-1.3 190.04 0.45 186.14 0.45L186.14 0.45ZM186.14-3.55Q188.59-3.55 190.74-4.7 192.89-5.85 194.21-8.15 195.54-10.45 195.54-13.75L195.54-13.75Q195.54-17.05 194.24-19.35 192.94-21.65 190.83-22.78 188.74-23.9 186.29-23.9L186.29-23.9Q183.79-23.9 181.71-22.78 179.64-21.65 178.39-19.35 177.14-17.05 177.14-13.75L177.14-13.75Q177.14-10.4 178.36-8.1 179.59-5.8 181.64-4.67 183.69-3.55 186.14-3.55L186.14-3.55ZM207.83-27.4L216.38-4.2 224.88-27.4 229.73-27.4 218.98 0 213.68 0 202.93-27.4 207.83-27.4ZM232.53-13.8Q232.53-18 234.23-21.18 235.93-24.35 238.91-26.1 241.88-27.85 245.53-27.85L245.53-27.85Q249.13-27.85 251.78-26.3 254.43-24.75 255.73-22.4L255.73-22.4 255.73-27.4 260.33-27.4 260.33 0 255.73 0 255.73-5.1Q254.38-2.7 251.71-1.13 249.03 0.45 245.48 0.45L245.48 0.45Q241.83 0.45 238.88-1.35 235.93-3.15 234.23-6.4 232.53-9.65 232.53-13.8L232.53-13.8ZM255.73-13.75Q255.73-16.85 254.48-19.15 253.23-21.45 251.11-22.68 248.98-23.9 246.43-23.9L246.43-23.9Q243.88-23.9 241.78-22.7 239.68-21.5 238.43-19.2 237.18-16.9 237.18-13.8L237.18-13.8Q237.18-10.65 238.43-8.33 239.68-6 241.78-4.78 243.88-3.55 246.43-3.55L246.43-3.55Q248.98-3.55 251.11-4.78 253.23-6 254.48-8.33 255.73-10.65 255.73-13.75L255.73-13.75Z" fill="#ff4136" data-fill-palette-color="secondary"></path></g></svg></g></svg></g><g transform="matrix(1,0,0,1,0,64.11312494410053)"><svg viewBox="0 0 187.87199999999999 13.597006514657979" height="13.597006514657979" width="187.87199999999999"><g transform="matrix(1,0,0,1,0,0)"><svg width="187.87199999999999" viewBox="3.75 -35.20000076293945 491.1600036621094 35.54999923706055" height="13.597006514657979" data-palette-color="#ff4136"><path d="M22.35-17.85Q25.15-17.35 27.1-14.9 29.05-12.45 29.05-9.35L29.05-9.35Q29.05-6.7 27.68-4.58 26.3-2.45 23.7-1.23 21.1 0 17.65 0L17.65 0 3.75 0 3.75-34.75 17-34.75Q20.55-34.75 23.1-33.55 25.65-32.35 26.95-30.33 28.25-28.3 28.25-25.8L28.25-25.8Q28.25-22.8 26.65-20.8 25.05-18.8 22.35-17.85L22.35-17.85ZM9.45-30.1L9.45-20.15 16.5-20.15Q19.3-20.15 20.88-21.43 22.45-22.7 22.45-25.1L22.45-25.1Q22.45-27.45 20.88-28.78 19.3-30.1 16.5-30.1L16.5-30.1 9.45-30.1ZM17.15-4.65Q20.05-4.65 21.7-6.05 23.35-7.45 23.35-9.95L23.35-9.95Q23.35-12.5 21.6-14 19.85-15.5 16.95-15.5L16.95-15.5 9.45-15.5 9.45-4.65 17.15-4.65ZM54.7-34.75L61-34.75 49.5-12.6 49.5 0 43.8 0 43.8-12.6 32.25-34.75 38.6-34.75 46.65-17.7 54.7-34.75ZM89.94 0.35Q86.44 0.35 83.64-0.88 80.84-2.1 79.24-4.35 77.64-6.6 77.64-9.6L77.64-9.6 83.74-9.6Q83.94-7.35 85.52-5.9 87.09-4.45 89.94-4.45L89.94-4.45Q92.89-4.45 94.54-5.88 96.19-7.3 96.19-9.55L96.19-9.55Q96.19-11.3 95.17-12.4 94.14-13.5 92.62-14.1 91.09-14.7 88.39-15.4L88.39-15.4Q84.99-16.3 82.87-17.23 80.74-18.15 79.24-20.1 77.74-22.05 77.74-25.3L77.74-25.3Q77.74-28.3 79.24-30.55 80.74-32.8 83.44-34 86.14-35.2 89.69-35.2L89.69-35.2Q94.74-35.2 97.97-32.68 101.19-30.15 101.54-25.75L101.54-25.75 95.24-25.75Q95.09-27.65 93.44-29 91.79-30.35 89.09-30.35L89.09-30.35Q86.64-30.35 85.09-29.1 83.54-27.85 83.54-25.5L83.54-25.5Q83.54-23.9 84.52-22.88 85.49-21.85 86.99-21.25 88.49-20.65 91.09-19.95L91.09-19.95Q94.54-19 96.72-18.05 98.89-17.1 100.42-15.13 101.94-13.15 101.94-9.85L101.94-9.85Q101.94-7.2 100.52-4.85 99.09-2.5 96.37-1.07 93.64 0.35 89.94 0.35L89.94 0.35ZM127.89-30.15L114.39-30.15 114.39-19.95 126.39-19.95 126.39-15.3 114.39-15.3 114.39-4.65 127.89-4.65 127.89 0 108.69 0 108.69-34.8 127.89-34.8 127.89-30.15ZM153.49-17.85Q156.29-17.35 158.24-14.9 160.19-12.45 160.19-9.35L160.19-9.35Q160.19-6.7 158.81-4.58 157.44-2.45 154.84-1.23 152.24 0 148.79 0L148.79 0 134.89 0 134.89-34.75 148.14-34.75Q151.69-34.75 154.24-33.55 156.79-32.35 158.09-30.33 159.39-28.3 159.39-25.8L159.39-25.8Q159.39-22.8 157.79-20.8 156.19-18.8 153.49-17.85L153.49-17.85ZM140.59-30.1L140.59-20.15 147.64-20.15Q150.44-20.15 152.01-21.43 153.59-22.7 153.59-25.1L153.59-25.1Q153.59-27.45 152.01-28.78 150.44-30.1 147.64-30.1L147.64-30.1 140.59-30.1ZM148.29-4.65Q151.19-4.65 152.84-6.05 154.49-7.45 154.49-9.95L154.49-9.95Q154.49-12.5 152.74-14 150.99-15.5 148.09-15.5L148.09-15.5 140.59-15.5 140.59-4.65 148.29-4.65ZM189.84 0L187.34-7.1 172.79-7.1 170.29 0 164.34 0 176.79-34.8 183.39-34.8 195.84 0 189.84 0ZM174.39-11.75L185.74-11.75 180.09-27.9 174.39-11.75ZM212.68 0.35Q209.18 0.35 206.38-0.88 203.58-2.1 201.98-4.35 200.38-6.6 200.38-9.6L200.38-9.6 206.48-9.6Q206.68-7.35 208.26-5.9 209.83-4.45 212.68-4.45L212.68-4.45Q215.63-4.45 217.28-5.88 218.93-7.3 218.93-9.55L218.93-9.55Q218.93-11.3 217.91-12.4 216.88-13.5 215.36-14.1 213.83-14.7 211.13-15.4L211.13-15.4Q207.73-16.3 205.61-17.23 203.48-18.15 201.98-20.1 200.48-22.05 200.48-25.3L200.48-25.3Q200.48-28.3 201.98-30.55 203.48-32.8 206.18-34 208.88-35.2 212.43-35.2L212.43-35.2Q217.48-35.2 220.71-32.68 223.93-30.15 224.28-25.75L224.28-25.75 217.98-25.75Q217.83-27.65 216.18-29 214.53-30.35 211.83-30.35L211.83-30.35Q209.38-30.35 207.83-29.1 206.28-27.85 206.28-25.5L206.28-25.5Q206.28-23.9 207.26-22.88 208.23-21.85 209.73-21.25 211.23-20.65 213.83-19.95L213.83-19.95Q217.28-19 219.46-18.05 221.63-17.1 223.16-15.13 224.68-13.15 224.68-9.85L224.68-9.85Q224.68-7.2 223.26-4.85 221.83-2.5 219.11-1.07 216.38 0.35 212.68 0.35L212.68 0.35ZM229.63-34.75L253.88-34.75 253.88-30.1 244.63-30.1 244.63 0 238.93 0 238.93-30.1 229.63-30.1 229.63-34.75ZM259.63-34.75L265.33-34.75 265.33 0 259.63 0 259.63-34.75ZM296.27 0L293.77-7.1 279.22-7.1 276.72 0 270.77 0 283.22-34.8 289.82-34.8 302.27 0 296.27 0ZM280.82-11.75L292.18-11.75 286.52-27.9 280.82-11.75ZM336.22-34.8L336.22 0 330.52 0 313.37-25.95 313.37 0 307.67 0 307.67-34.8 313.37-34.8 330.52-8.9 330.52-34.8 336.22-34.8ZM356.67-34.75L362.37-34.75 362.37-12.6Q362.37-8.65 364.44-6.65 366.52-4.65 370.22-4.65L370.22-4.65Q373.97-4.65 376.04-6.65 378.12-8.65 378.12-12.6L378.12-12.6 378.12-34.75 383.82-34.75 383.82-12.7Q383.82-8.45 381.97-5.5 380.12-2.55 377.02-1.1 373.92 0.35 370.17 0.35L370.17 0.35Q366.42 0.35 363.34-1.1 360.27-2.55 358.47-5.5 356.67-8.45 356.67-12.7L356.67-12.7 356.67-34.75ZM413.27-34.75L418.97-34.75 418.97 0 413.27 0 413.27-15.2 396.92-15.2 396.92 0 391.22 0 391.22-34.75 396.92-34.75 396.92-19.85 413.27-19.85 413.27-34.75ZM432.16-34.75L432.16-4.6 443.91-4.6 443.91 0 426.46 0 426.46-34.75 432.16-34.75ZM448.66-34.75L454.36-34.75 454.36 0 448.66 0 448.66-34.75ZM493.86-24.75L487.01-24.75Q485.66-27.35 483.26-28.68 480.86-30 477.71-30L477.71-30Q474.26-30 471.56-28.45 468.86-26.9 467.33-24.05 465.81-21.2 465.81-17.45L465.81-17.45Q465.81-13.7 467.33-10.83 468.86-7.95 471.56-6.4 474.26-4.85 477.71-4.85L477.71-4.85Q482.36-4.85 485.26-7.45 488.16-10.05 488.81-14.5L488.81-14.5 475.76-14.5 475.76-19.05 494.91-19.05 494.91-14.6Q494.36-10.55 492.03-7.15 489.71-3.75 485.98-1.73 482.26 0.3 477.71 0.3L477.71 0.3Q472.81 0.3 468.76-1.98 464.71-4.25 462.33-8.3 459.96-12.35 459.96-17.45L459.96-17.45Q459.96-22.55 462.33-26.6 464.71-30.65 468.78-32.93 472.86-35.2 477.71-35.2L477.71-35.2Q483.26-35.2 487.58-32.48 491.91-29.75 493.86-24.75L493.86-24.75Z" opacity="1" transform="matrix(1,0,0,1,0,0)" fill="#ff4136" class="slogan-text-1" data-fill-palette-color="secondary" id="text-1"></path></svg></g></svg></g></svg></g></svg></g><g transform="matrix(1,0,0,1,0,12.006215310378188)"><svg viewBox="0 0 40.571596188712725 53.697700838002135" height="53.697700838002135" width="40.571596188712725"><g><svg xmlns="http://www.w3.org/2000/svg" viewBox="15.999998092651367 5 68 90" enable-background="new 0 0 100 100" x="0" y="0" height="53.697700838002135" width="40.571596188712725" class="icon-icon-0" data-fill-palette-color="accent" id="icon-0"><path d="M30.8 95c-8.2 0-14.8-6.7-14.8-14.9 0-7.1 5-13 11.6-14.5v-31.3c-6.7-1.5-11.6-7.4-11.6-14.4 0-8.2 6.6-14.9 14.8-14.9s14.9 6.7 14.9 14.9c0 2-0.4 4-1.2 5.8-0.7 1.7-2.6 2.4-4.3 1.7-1.7-0.7-2.4-2.6-1.7-4.3 0.4-1 0.7-2.1 0.7-3.2 0-4.6-3.7-8.3-8.3-8.3s-8.3 3.7-8.3 8.3 3.7 8.3 8.3 8.3c1.8 0 3.3 1.5 3.3 3.3v37.1c0 1.8-1.5 3.3-3.3 3.3-4.6 0-8.3 3.7-8.3 8.3s3.7 8.3 8.3 8.3 8.3-3.7 8.3-8.3c0-2.1-0.8-4.1-2.2-5.6-0.4-0.4-0.8-1-0.9-1.6-0.1-0.3-0.1-0.6-0.1-0.8 0-19.4 10-22.9 18.1-25.7 6.4-2.2 10.9-3.8 11.7-12.2-6.6-1.5-11.5-7.4-11.5-14.5 0-8.1 6.7-14.8 14.9-14.8 8.2 0 14.8 6.7 14.8 14.9 0 2.6-0.7 5.2-2 7.4-0.9 1.6-2.9 2.1-4.5 1.2-1.6-0.9-2.1-2.9-1.2-4.5 0.7-1.3 1.1-2.7 1.1-4.2 0-4.6-3.7-8.3-8.3-8.3s-8.3 3.7-8.3 8.3 3.7 8.3 8.3 8.3c1.8 0 3.3 1.5 3.3 3.3 0 15.6-9 18.7-16.2 21.2-7.5 2.6-13.4 4.7-13.7 18.3 2.1 2.6 3.2 5.8 3.2 9.2 0 8.2-6.7 14.9-14.9 14.9" fill="#ffffff" data-fill-palette-color="accent"></path></svg></g></svg></g></svg></g><defs></defs></svg><rect width="395.52" height="68.55545915447118" fill="none" stroke="none" visibility="hidden"></rect></g></svg></g></svg>
